<svg xmlns="http://www.w3.org/2000/svg" viewBox="0 0 192 192" width="192" height="192">
    <mask id="text">
        <rect x="0" y="0" width="192" height="192" fill="white" />

        <!--https://danmarshall.github.io/google-font-to-svg-path/ for Raleway 600 weight, 54pt and 72pt-->
        <g transform="translate(44,42)" fill="black">
            <path d="M 0 38.34 L 0 33.696 L 23.274 5.346 L 0.54 5.346 L 0.54 0 L 30.348 0 L 30.348 4.644 L 7.614 32.994 L 30.402 32.994 L 30.402 38.34 L 0 38.34 Z"/>
            <path d="M 42.66 32.994 L 62.91 32.994 L 62.91 38.34 L 36.612 38.34 L 36.612 0 L 62.424 0 L 62.424 5.346 L 42.66 5.346 L 42.66 16.254 L 59.778 16.254 L 59.778 21.276 L 42.66 21.276 L 42.66 32.994 Z"/>
            <path d="M 96.93 38.34 L 75.222 11.34 L 75.222 38.34 L 69.174 38.34 L 69.174 0 L 73.926 0 L 95.85 27.648 L 95.85 0.054 L 101.952 0.054 L 101.952 38.34 L 96.93 38.34 Z"/>
        </g>
        <g transform="translate(44,102) scale(0.96)" fill="black">
            <path d="M 38.952 51.48 L 38.952 45.144 A 23.351 23.351 0 0 1 33.167 49.587 A 19.111 19.111 0 0 1 24.048 51.84 Q 18.936 51.84 14.544 49.716 Q 10.152 47.592 6.912 43.992 Q 3.672 40.392 1.836 35.64 Q 0 30.888 0 25.704 Q 0 20.52 1.836 15.84 Q 3.672 11.16 6.912 7.632 Q 10.152 4.104 14.616 2.052 A 22.774 22.774 0 0 1 23.52 0.013 A 26.464 26.464 0 0 1 24.336 0 Q 31.202 0 35.991 2.675 A 17.817 17.817 0 0 1 36.648 3.06 Q 41.616 6.12 44.136 11.16 L 37.944 15.624 A 15.661 15.661 0 0 0 35.279 11.777 A 13.457 13.457 0 0 0 32.184 9.36 Q 28.512 7.272 24.12 7.272 A 14.504 14.504 0 0 0 19.674 7.939 A 13.167 13.167 0 0 0 17.568 8.82 Q 14.616 10.368 12.528 12.924 A 18.093 18.093 0 0 0 9.628 18.006 A 20.936 20.936 0 0 0 9.324 18.864 Q 8.208 22.248 8.208 25.92 A 21.216 21.216 0 0 0 8.947 31.579 A 19.349 19.349 0 0 0 9.468 33.192 A 19.524 19.524 0 0 0 11.869 37.761 A 17.694 17.694 0 0 0 12.924 39.096 Q 15.12 41.616 18.144 43.092 Q 21.168 44.568 24.696 44.568 Q 28.584 44.568 32.148 42.768 A 18.422 18.422 0 0 0 35.738 40.357 Q 37.177 39.138 38.559 37.544 A 31.511 31.511 0 0 0 38.952 37.08 L 38.952 31.608 L 28.224 31.608 L 28.224 25.632 L 45.72 25.632 L 45.72 51.48 L 38.952 51.48 Z"/>
            <path d="M 106.056 51.48 L 97.92 51.48 L 97.92 14.688 L 82.728 42.552 L 78.264 42.552 L 63 14.688 L 63 51.48 L 54.936 51.48 L 54.936 0.36 L 63.576 0.36 L 80.496 31.608 L 97.416 0.36 L 106.056 0.36 L 106.056 51.48 Z"/>
        </g>
    </mask>

    <circle cx="96" cy="96" r="96" fill="#f05742" mask="url(#text)" />
</svg>
