<svg xmlns="http://www.w3.org/2000/svg" xml:space="preserve" width="643.161" height="357.9"><defs><clipPath clipPathUnits="userSpaceOnUse" id="a"><path d="M0 612h792V0H0Z"/></clipPath></defs><g clip-path="url(#a)" transform="matrix(1.33333 0 0 -1.33333 -172.78 779.262)"><path d="M0 0c9.547-.039 18.235.537 26.864 1.911 8.178 1.303 16.204 3.178 23.892 6.324 1.473.602 2.661 1.156 2.509 3.351-.726 10.544-1.204 21.104-1.803 31.658-.088 1.562.478 2.521 2.06 2.734 1.839.249 3.681.48 5.526.66 1.567.153 2.323.877 2.216 2.527-.24 3.697-.396 7.399-.608 11.098-.081 1.406-.817 1.848-2.238 1.698-3.225-.339-6.465-.533-9.701-.764-15.901-1.138-31.801-2.286-47.706-3.375-1.625-.111-2.506-.667-2.247-2.347.525-3.414.384-6.855.427-10.282.029-2.297 1.101-2.827 3.153-2.671 3.604.274 7.236.247 10.826.624 2.507.264 3.2-.663 3.307-3.038.29-6.389.74-12.774 1.28-19.147.351-4.134-.496-5.538-4.564-5.836-15.488-1.137-28.026 4.591-35.61 18.093-8.963 15.957-9.459 33.027-2.189 49.869 5.567 12.896 15.787 20.029 29.837 21.483 4.425.458 8.691-.132 12.777-1.967 1.735-.78 2.752-2.011 3.284-3.856 1.413-4.9 3.051-9.735 4.401-14.65.629-2.287 1.816-2.931 4.047-2.536 5.388.952 10.789 1.856 16.207 2.623 2.201.311 2.759 1.36 2.464 3.403-1.432 9.914-2.869 19.83-4.137 29.766-.265 2.073-1.212 2.871-3.065 3.232-6.855 1.336-13.819 1.812-20.745 1.666-8.321-.175-16.639-.897-24.838-2.626-13.465-2.84-26.421-6.997-37.521-15.417-17.273-13.104-27.52-29.9-26.297-52.343C-67.017 30.306-56.17 15.277-36.73 6.472-24.849 1.089-12.107-.202 0 0m77.767 6.736c6.756.449 13.514.883 20.27 1.351 6.564.455 13.12 1.023 19.689 1.379 2.43.132 2.944 1.333 2.79 3.421-.233 3.145-.457 6.295-.493 9.445-.019 1.605-.577 2.134-2.126 2.037-3.421-.215-6.851-.297-10.273-.508-2.007-.124-2.794.698-2.888 2.723-.459 9.91-1.038 19.815-1.545 29.723-.502 9.817-.973 19.636-1.444 29.454-.051 1.062-.5 2.392.93 2.862 1.531.501 2.119-.736 2.659-1.841 2.322-4.751 4.66-9.495 6.942-14.265 8.573-17.926 18.163-35.308 27.998-52.561.844-1.481 1.893-2.112 3.591-1.949 4.335.419 8.672.888 13.019 1.06 2.095.083 3.163.878 3.918 2.766 3.202 8.009 6.558 15.959 9.777 23.962 5.886 14.639 10.961 29.571 16.047 44.498.345 1.011.539 2.363 2.04 2.247 1.589-.123 1.382-1.509 1.469-2.564 1.567-19.032 3.071-38.07 4.723-57.094.197-2.268-.75-2.763-2.571-2.916-2.402-.201-4.806-.4-7.193-.718-1.254-.167-2.707-.296-2.602-2.195.208-3.794.395-7.59.598-11.386.053-.973.381-1.468 1.559-1.367 4.892.421 9.797.715 14.694 1.083 11.181.84 22.354 1.835 33.545 2.494 7.067.416 6.516-.198 6.037 6.486-.729 10.2 1.014 8.481-8.852 8.128-.092-.003-.184-.023-.276-.034-1.999-.239-3.122.436-3.286 2.648-.624 8.41-1.359 16.811-2.032 25.216-.702 8.777-1.375 17.554-2.066 26.331-.764 9.702-1.526 19.403-2.306 29.103-.153 1.917.655 3 2.571 3.251 2.023.265 4.036.688 6.066.773 1.991.083 2.544 1.009 2.416 2.827-.246 3.511-.504 7.028-.54 10.544-.02 1.868-.609 2.36-2.455 2.211-6.375-.514-12.764-.832-19.145-1.277-7.951-.553-15.896-1.208-23.85-1.714-2.714-.173-4.162-1.182-5.082-3.986-7.668-23.35-15.529-46.637-23.362-69.932-.361-1.072-.384-2.596-1.938-2.756-1.585-.162-1.851 1.304-2.363 2.339-10.979 22.202-21.973 44.397-32.868 66.64-1.078 2.199-2.345 2.81-4.756 2.614-10.349-.84-20.718-1.442-31.077-2.144-5.358-.363-10.713-.767-16.071-1.127-1.899-.128-2.971-.933-2.661-2.988.513-3.405.508-6.839.582-10.27.039-1.797.908-2.714 2.8-2.62 1.853.091 3.711.084 5.566.088 3.731.005 3.903-.082 4.117-3.851.857-15.184 1.623-30.373 2.494-45.556.636-11.093 1.325-22.184 2.127-33.266.183-2.537-.811-3.622-3.158-3.863-2.119-.216-4.234-.485-6.356-.672-1.372-.121-1.966-.704-1.83-2.157.206-2.215.197-4.449.388-6.665.484-5.63.509-5.628 6.043-5.462m108.041-5.445c-3.273-.274-6.271-.441-9.248-.789-8.824-1.029-17.625-2.279-26.52-2.547-6.267-.189-12.481-1.363-18.807.239-7.234 1.832-14.593.123-21.889-.188-7.303-.311-14.48-2.082-21.829-2.053-1.854.006-3.577-.456-5.223-1.562-2.679-1.801-5.927-1.31-8.936-1.527-11.933-.862-23.878-1.555-35.819-2.302-.645-.041-1.407-.22-1.925.041-5.833 2.937-11.921 1.091-17.826.74-12.678-.754-25.329-1.886-38.039-.855-6.537.529-13.098-.329-19.349-1.593-6.493-1.311-12.964-1.844-19.476-2.598-4.376-.505-8.586-2.301-13.11-2.095-.679.031-1.625-.539-1.871.526-.169.736.65 1.046 1.197 1.364.801.467 1.627.895 2.456 1.309 1.338.668 2.739 1.856 2.015 3.155-.81 1.453-2.704 1.869-4.443.954-1.61-.847-2.785-2.458-5.041-2.839 1.157 2.962-.204 3.936-2.834 3.887-.997-.018-1.126.788-1.298 1.521-.507 2.17-.134 4.282.691 6.266 1.449 3.488 1.728 7.195 2.306 10.852.201 1.271-.238 2.287-1.406 2.724-2.096.784-2.221 2.402-1.729 4.088 1.654 5.662.845 11.57 1.878 17.313.661 3.666 1.652 7.313.991 11.254-.894 5.33-2.815 10.328-4.553 15.334-1.175 3.383-1.994 6.689-2.263 10.191-.235 3.051-.233 6.129-.623 9.158-.564 4.375.759 8.192 2.724 11.986 1.797 3.472 1.063 4.487-2.863 4.235-1.548-.099-2.035.647-2.091 1.909-.226 5.027-1.379 10.111 2.333 14.644 1.771 2.163 1.133 3.345-1.737 4.073-1.34.34-1.803.885-1.944 2.186-.336 3.092-1.168 6.031 1.8 8.66 2.363 2.093 6.573 3.382 9.285 1.675 1.585-.997 3.178-1.315 4.992-1.279 4.945.096 9.776.7 14.471 2.381 2.913 1.042 6.017.997 9.081 1.035 1.71.022 3.414.827 3.782-2.285.206-1.742 2.816-2.7 5.013-2.78 2.461-.089 4.991.518 7.327-.887.626-.377 1.51-.22 1.947.571 1.295 2.346 3.607 2.437 5.811 2.506 3.718.115 7.367.31 10.836 1.923 2.665 1.24 5.666.792 8.488 1.299 1.299.234 2.436.427 1.772 2.218-.434 1.167.542 1.179 1.226 1.228 7.583.54 15.167 1.065 22.753 1.541.709.044 1.742-.03 2.114-.476 2.028-2.427 5.196-1.643 7.614-2.893 1.088-.562 2.197-.177 3.252.16 9.599 3.062 19.427 2.382 29.258 1.892 3.265-.162 6.364-.562 9.429-1.939 2.806-1.259 5.937-.228 8.781.318 12.393 2.381 24.953 3.693 37.349 5.95 10.165 1.851 20.495 1.717 30.65 3.365.544.088 1.341-.009 1.588.312 2.117 2.744 5.29 2.069 7.991 2.278 12.475.962 24.969 1.68 37.46 2.4 6.57.379 13.068 1.257 19.527 2.467 1.015.19 2.072.484 2.991-.085 5.941-3.68 12.434-3.072 18.866-2.29 3.265.397 6.458.458 9.688.005 3.778-.531 5.368-1.715 5.379-5.61.018-7.124 1.964-13.945 2.662-20.946.036-.367.129-.765.036-1.105-2.582-9.369-.728-18.805-.126-28.16.471-7.319.009-14.648.827-21.958.528-4.697.696-9.439 1.993-14.006 1.415-4.983 1.656-10.05 1.457-15.168-.158-4.056.764-7.864 2.054-11.7 1.776-5.28 2.355-10.847 2.847-16.372.269-3.004-1.524-4.932-4.717-4.939-6.665-.016-13.188-1.371-19.948-1.099-8.369.336-16.807-.993-25.215-1.603-1.57-.114-3.148-.38-4.712-.314-7.716.321-15.38-.424-23.049-1.055-1.04-.086-2.522.265-2.59-1.36-.059-1.392 1.392-1.215 2.275-1.583.496-.207 1.131-.123 1.786-1.293" style="fill:#000;fill-opacity:1;fill-rule:evenodd;stroke:none" transform="translate(220.626 331.945)"/><path d="M0 0c-2.275-2.945-4.382-5.37-6.568-7.737-3.161-3.42-6.996-5.827-11.049-7.919-2.289-1.183-4.896-2.19-7.222-.24-2.452 2.055-3.628 4.641-2.859 8.093 1.648 7.401 6.611 12.697 11.106 18.319.948 1.187 1.931 2.349 2.823 3.577.639.879.739 1.755.276 2.906-1.839 4.572-1.632 9.096.09 13.778 3.255 8.848 10.494 11.078 18.707 11.825 4.242.386 4.144.249 3.393 4.354-.464 2.537-.872 4.972.289 7.718.822 1.942.194 4.68-.711 6.92-.59 1.465-.809 3.062.64 3.832 3.404 1.812 4.23 5.365 6.031 8.241 4.956 7.909 13.498 10.911 22.219 7.592 4.707-1.791 8.787-4.49 11.673-8.747 2.774-4.089 3.205-8.702 2.684-13.397a44.323 44.323 0 0 0-2.89-11.552c-.856-2.141.629-2.005 1.821-2.065 4.605-.231 9.019-1.241 13.223-3.118 4.078-1.821 6.976-4.908 8.945-8.837.81-1.613 1.825-2.12 3.598-1.98 2.931.231 5.885.175 8.831.246 1.045.025 2.107-.028 2.647 1.196 1.887 4.275 3.058 8.581 1.215 13.222-.626 1.575-.841 3.313-1.459 4.892-1.106 2.828-2.366 5.569-4.886 7.537-.87.679-1.484 1.723-2.111 2.671-3.274 4.955-2.67 7.643 2.398 10.744.908.554 1.737 1.166 2.292 2.087.72 1.196 1.714 1.725 3.119 1.367.361-.092.812-.262 1.107-.133 6.419 2.798 12.495.458 18.538-1.35 4.955-1.482 8.486-4.922 11.086-9.313 2.031-3.429 1.77-5.299-1.04-8.104-4.127-4.121-9.034-6.642-14.928-6.783-2.394-.057-2.644-.601-1.708-2.795 2.68-6.283 5.39-12.604 5.178-19.669-.011-.373.08-.755.159-1.126 1.318-6.109-.467-9.287-6.508-11.222-1.978-.634-4.06-1.175-6.121-1.289-8.817-.491-17.658-1.03-26.091 2.587-2.605 1.116-6.554-.186-7.993-2.707-1.792-3.14-3.35-6.428-3.39-10.157-.015-1.303-.31-2.455-1.071-3.464-2.225-2.952-2.654-6.447-3.03-9.949-.079-.731-.086-1.612.244-2.224 3.944-7.299 4.226-15.129 3.767-23.165-.204-3.575.858-7.13 1.175-10.721.137-1.579 1.984-2.934 2.709-4.546 6.766-15.059 13.837-30.01 17.125-46.357.902-4.492 3.321-8.096 7.083-10.637 6.075-4.106 9.954-9.775 12.389-16.562.943-2.629 2.549-4.883 4.14-7.126 3.295-4.65 6.674-9.24 10.029-13.846 1.299-1.785 2.82-3.326 4.794-4.387 1.096-.589 2.103-1.337 2.72-2.453 2.052-3.715 5.245-6.2 8.84-8.252 4.276-2.441 7.937-5.534 10.502-9.806 1.583-2.636.698-4.794-2.339-5.106-3.971-.407-8.221-1.024-11.86.509-4.812 2.027-9.582 4.617-13.6 7.906-2.65 2.168-5.302 5.019-5.927 9.078-.365 2.368-2.23 4.335-3.829 6.251-4.507 5.398-10.029 9.763-14.911 14.781-2.728 2.803-5.449 5.622-7.427 8.977-1.761 2.988-3.723 5.679-6.493 7.793-7.268 5.545-11.681 13.433-16.714 20.767-3.533 5.149-7.981 9.47-12.332 13.767-3.351 3.311-7.983 5.373-12.171 7.771-2.269 1.299-4.629.429-6.803-.684-4.358-2.233-7.891-5.602-11.68-8.606-1.821-1.444-3.878-2.272-5.927-3.267-7.716-3.745-14.476-8.656-17.938-16.926-.65-1.55-.858-3.299-1.183-4.973-1.181-6.074-2.848-11.951-5.367-17.662-3.753-8.506-7.468-17.132-8.524-26.472-.452-4.012-.08-8.107-1.109-12.114-1.043-4.059-2.82-5.445-7.149-6.204-5.918-1.04-11.733-1.741-17.705-1.507-1.777.07-3.164.507-3.599 2.493-.404 1.842.285 3.092 1.838 4.063 3.223 2.017 6.377 4.136 9.052 6.881.329.339.914.585 1.014.969 1.142 4.426 4.624 7.808 5.704 12.16 2.329 9.385 5.786 18.552 6.386 28.297.599 9.716 4.811 18.3 7.937 27.237.313.895.926 1.826.851 2.693-.472 5.436 3.21 8.826 5.987 12.691 1.16 1.614 2.312 3.281 3.138 5.075 2.124 4.602 4.858 8.799 7.895 12.829C-4.643-57.68-2.494-54.792-2-51.015c.127.971.678 2.1 1.401 2.742 3.3 2.927 2.993 6.682 2.683 10.477-.418 5.105-.88 10.209-1.235 15.318-.159 2.276-.263 4.602 1.713 6.348.46.407.57 1.041.39 1.589C1.583-10.352 1.636-5.927.764-1.659.674-1.222.388-.826 0 0" style="fill:#000;fill-opacity:1;fill-rule:evenodd;stroke:none" transform="translate(473.213 501.854)"/><path d="m0 0-2.426 36.371 8.184.551L7.771 6.731l20.348 1.372.407-6.179Zm-35.15-2.37-2.426 36.371 8.184.552 2.013-30.191 20.347 1.371.413-6.177zm-27.654 26.379-4.567-13.976 11.059.747zM-49.18-3.314l-4.093 8.091-16.2-1.092-2.791-8.555-8.68-.584 13.34 37.733 8.654.582 18.672-35.575zM-94.565 7.471c-.642.728-1.53 1.23-2.668 1.504-1.141.275-3.569.286-7.292.036l-6.608-.446.654-9.804 7.574.51c2.948.199 4.815.401 5.598.603 1.202.283 2.161.838 2.873 1.664.713.827 1.028 1.891.939 3.191-.073 1.101-.429 2.015-1.07 2.742m-2.671 15.259c-.737.664-1.794 1.024-3.167 1.082-.817.028-3.15-.088-7.002-.347l-4.7-.316.565-8.48 5.362.362c3.19.215 5.168.39 5.936.526 1.392.244 2.464.755 3.217 1.535.754.779 1.09 1.76 1.009 2.945-.074 1.133-.48 2.032-1.22 2.693M-85.972-.002a10.163 10.163 0 0 0-3.259-4.015c-1.422-1.042-3.212-1.744-5.373-2.108-1.354-.224-4.638-.53-9.852-.916l-13.794-.929-2.446 36.67 16.201 1.092c3.206.217 5.606.256 7.197.122 1.593-.137 3.036-.546 4.332-1.228a9.856 9.856 0 0 0 3.314-2.856c.914-1.22 1.425-2.621 1.529-4.205.115-1.719-.29-3.329-1.217-4.831-.928-1.504-2.244-2.672-3.948-3.508 2.515-.483 4.487-1.465 5.917-2.943 1.432-1.479 2.219-3.275 2.359-5.393.113-1.669-.209-3.32-.96-4.952m-52.182 21.294 2.032-30.466-8.183-.552-2.032 30.467-12.026-.81-.413 6.202 32.206 2.171.413-6.203zm-31.917-14.211c-.28 4.201-1.508 7.269-3.682 9.199-2.174 1.931-4.948 2.783-8.32 2.555-3.372-.227-6.022-1.458-7.945-3.688-1.926-2.233-2.747-5.458-2.466-9.677.276-4.153 1.546-7.229 3.809-9.229 2.262-1.999 5.024-2.889 8.286-2.67 3.262.22 5.869 1.464 7.819 3.732 1.95 2.265 2.783 5.526 2.499 9.778m4.063-13.86c-3.335-3.584-7.979-5.575-13.931-5.976-6.026-.406-10.93.934-14.708 4.022-3.779 3.087-5.863 7.547-6.252 13.384-.25 3.736.158 6.912 1.225 9.53.797 1.929 1.943 3.69 3.439 5.282 1.493 1.592 3.168 2.81 5.018 3.654 2.46 1.138 5.34 1.818 8.639 2.04 5.971.403 10.86-.949 14.67-4.062 3.808-3.109 5.91-7.649 6.309-13.619.394-5.92-1.075-10.67-4.409-14.255m-48.668 10.853c-.28 4.202-1.508 7.27-3.681 9.2-2.175 1.93-4.949 2.783-8.321 2.554-3.373-.226-6.022-1.457-7.946-3.688-1.924-2.232-2.747-5.457-2.464-9.676.276-4.153 1.546-7.229 3.808-9.229 2.261-2 5.025-2.89 8.287-2.671 3.262.22 5.868 1.464 7.817 3.732 1.952 2.266 2.784 5.526 2.5 9.778m4.064-13.86c-3.335-3.583-7.979-5.574-13.931-5.974-6.027-.407-10.93.931-14.709 4.02-3.779 3.087-5.863 7.549-6.252 13.385-.249 3.736.16 6.911 1.225 9.529.798 1.93 1.944 3.691 3.439 5.283 1.494 1.592 3.168 2.809 5.017 3.654 2.461 1.139 5.341 1.818 8.64 2.039 5.972.404 10.861-.949 14.67-4.061 3.807-3.11 5.911-7.649 6.309-13.619.395-5.92-1.075-10.673-4.408-14.256m-60.969 22.085.579-8.68 16.919 1.141.414-6.204-16.92-1.14 1.04-15.583-8.183-.553-2.445 36.67 27.783 1.873.414-6.202z" style="fill:#000;fill-opacity:1;fill-rule:nonzero;stroke:none" transform="translate(409.762 489.813)"/></g></svg>