<svg xmlns="http://www.w3.org/2000/svg" xmlns:xlink="http://www.w3.org/1999/xlink" width="1082.906" height="602.684" viewBox="0 0 812.179 452.013" version="1.2"><defs><symbol overflow="visible" id="a" style="overflow:visible"><path style="stroke:none" d="m9.25 1.406 11.672-77.14 18.281 2.765-4.594 30.36 35.813 5.422 4.594-30.36L93.28-64.78 81.61 12.359 63.344 9.594l5.11-33.719-35.813-5.422-5.11 33.719Zm0 0"/></symbol><symbol overflow="visible" id="b" style="overflow:visible"><path style="stroke:none" d="M11.266-37.266c1.187-7.863 3.562-14.25 7.125-19.156 2.656-3.613 6-6.71 10.03-9.297 4.032-2.582 8.274-4.304 12.735-5.172 5.957-1.187 12.617-1.222 19.985-.109 13.332 2.023 23.468 7.168 30.406 15.438 6.945 8.261 9.473 18.667 7.578 31.218-1.887 12.45-7.34 21.59-16.36 27.422-9.011 5.832-20.163 7.742-33.453 5.735C35.852 6.77 25.68 1.647 18.797-6.547c-6.875-8.207-9.387-18.445-7.531-30.719zm18.906 2.328c-1.324 8.743.039 15.72 4.094 20.938 4.05 5.219 9.718 8.383 17 9.484C58.555-3.41 64.875-4.738 70.219-8.5c5.351-3.758 8.707-10.113 10.062-19.063 1.344-8.843.067-15.78-3.828-20.812-3.887-5.031-9.601-8.117-17.14-9.266-7.532-1.132-13.938.153-19.22 3.86-5.273 3.699-8.577 9.98-9.921 18.843zm0 0"/></symbol><symbol overflow="visible" id="c" style="overflow:visible"><path style="stroke:none" d="m71.406-18.203 16.985 7.469C84.41-2.723 78.953 2.844 72.016 5.969c-6.938 3.133-15.266 3.968-24.985 2.5-12.023-1.824-21.37-6.82-28.047-14.985-6.668-8.175-9.086-18.328-7.25-30.453 1.946-12.843 7.344-22.226 16.188-28.156 8.851-5.926 19.617-7.93 32.297-6.016 11.07 1.68 19.644 5.836 25.718 12.47 3.614 3.917 5.977 9.116 7.094 15.593l-18.64.937c-.461-4.156-2.215-7.644-5.266-10.468-3.043-2.82-6.996-4.602-11.86-5.344-6.699-1.008-12.449.226-17.25 3.703-4.792 3.469-7.886 9.793-9.28 18.969-1.481 9.761-.477 17.023 3.015 21.781 3.488 4.75 8.523 7.625 15.11 8.625 4.85.73 9.226.047 13.124-2.047 3.907-2.094 7.047-5.851 9.422-11.281zm0 0"/></symbol><symbol overflow="visible" id="d" style="overflow:visible"><path style="stroke:none" d="m9.438 1.422 11.671-77.14 18.282 2.765-5.188 34.25 42.11-28.656 24.578 3.718L62.266-38.75l28.812 52.531-23.656-3.578-19.39-39.969L31.25-19.125 27.719 4.188Zm0 0"/></symbol><symbol overflow="visible" id="e" style="overflow:visible"><path style="stroke:none" d="m9.188 1.39 11.671-77.14 67.125 10.156-1.968 13.063-48.844-7.39-2.594 17.093 45.453 6.875-1.969 13-45.453-6.875-3.172 20.984 50.579 7.656-1.97 13zm0 0"/></symbol><symbol overflow="visible" id="f" style="overflow:visible"><path style="stroke:none" d="m32.969 4.984 4.906-32.453-26.39-49.703 21.421 3.25L49.61-40.188l25.47-27.359 21.046 3.188-40.031 39.75L51.187 7.75Zm0 0"/></symbol></defs><path style="fill:#000;fill-opacity:1;fill-rule:nonzero;stroke:none" d="m538.996 139.242 1.649 16.414-4.622 7.594-.992 7.48-18.496-4.183-2.312-9.238-2.97-9.258-7.269-13.531-2.968-11.563 5.28-19.152 8.7-14.325 28.91 9.09-4.582 11.84-.66 14.2zm274.055 280.211-.211-6.922a9.221 9.221 0 0 0-.278-3.117l-1.484-5.621a2.733 2.733 0 0 0-.746-1.598l-1.644-1.699a3.223 3.223 0 0 0-1.2-.781l-6.988-2.555-5.781-1.652-1.086-3.746a1.942 1.942 0 0 0-1.934-1.778h-3.18l-9.324-4.797-5.87-6.593-5.45-11.727s-9.082-23.12-9.41-23.945c-.332-.824-13.871-24.11-13.871-24.11s-11.727-20.312-12.223-20.476c-.496-.168-10.062-12.563-10.062-12.563s-9.754-11.714-9.754-12.21c0-.493-9.653-18.833-9.653-18.833s-6.629-12.867-7.68-15.027c-.78-1.617-6.355-10.652-6.355-10.652l-11.89-16.02-9.813-9.804 103.356 9.234 8.007-.492 7.102-8.258 1.898-9.906 2.809-12.555v-18.164l-1.816-7.266-2.56-5.78-7.019-5.778-4.789-3.305-4.379 3.883-.082 7.02 1.817 13.87 1.12 17.739s.532 7.61-.128 9.84c-.488 1.652-2.809 4.128-2.809 4.128l-2.296.66a9.03 9.03 0 0 1-2.872.34l-6.3-.269-93.66-11.367 1.433-3.98 3.797-9.66 3.79-11.395 2.312-11.063 3.054-13.047.082-10.488-.496-7.184-3.633-9.41-5.285-9.414-11.722-11.558-13.047-9.91-9.578-8.587-.825-7.761 2.778-9.742 1.68-12.387-.989-11.23-3.965-10.403-5.449-7.43-2.148-1.816-4.457-.332h-3.797l-2.313-1.484-1.156-1.915-4.129-1.39-5.613 1.39-4.625 3.067-7.43 6.61s-6.441 11.823-6.937 11.988c-.497.164-.165 17.402-.165 17.402l-11.945-3.09-24.387-2.934-16.789-1.793s-7.629-.207-14.261-.027c-4.735.129-12.262 1.95-15.903 4.977l-8.808 9.687-21.797 39.422-3.742 16.723-7.266 11.008s.55 6.332.219 6.828c-.332.496-4.16-.211-4.16-.211v6.933l19.394 27.758-10.61-.672-4.46 3.797v9.906l3.305 5.286 4.293.496s2.906-1.32 3.238-1.98c.332-.665 8.804-.442 8.804-.442l2.754 4.293 7.047 5.504 5.285 1.652c1.598.254 5.883-.316 7.485-.55l6.074-1.438c.805-.223 3.406-.73 3.852-1.434l1-4.05c.714-1.126 1.582-1.438 2.847-1.036l13.438 4.399c1.644.629 2.3 1.566 2.203 3.332l28.37 6.62c-5.284 2.75-7.616 13.536-7.616 19.481l-5.254 6.492c-5.406-1.648-4.434 2.54-4.348 8.032l-.59 5.957c-2.406-3.555-3.98-1.07-3.328.937l-1.168 4.074s.98 6.641.98 8.293c0 1.653 4.395 18.395 4.395 18.395l7.383 19.476 5.176 14.536.308 12.34c.418 5.683 3.832 12.882 4.68 14.535l3.219 5.234 12.18 9.125 11.289 6.523a6.02 6.02 0 0 1 2.468 2.723l4.82 10.629 1.65 15.687 6.937 14.864 6.605 8.75 9.41 5.945 8.918-6.11 4.469-12.394s-1.66-7.586-1.824-8.91c-.164-1.32-8.094-23.777-8.094-23.777l-7.594-23.121-4.297-9.247-4.457-9.246-.66-35.507 5.567-8.649 3.414 5.172 9.746 8.918 10.73 7.926 7.598 7.93 11.66 12.226 6.77 6.277 7.656-2.172 4.742 6.125 8.914 12.934 8.918 7.102 12.715 7.93 7.433 9.081 13.54 14.696 16.503 15.312 8.754 10.899 11.891 11.726 12.219 6.934 15.797 10.277c-.63.477 4.773 2.762 8.148.621.883-.558 6.441-3.797 6.441-3.797l8.762 1.809 1.735-3.8zm0 0" transform="translate(-4.34 -5.215)"/><g style="fill:#000;fill-opacity:1" transform="translate(-4.34 -5.215)"><use xlink:href="#a" x="-4.91" y="380.361" width="100%" height="100%"/><use xlink:href="#b" x="86.384" y="394.18" width="100%" height="100%"/><use xlink:href="#c" x="184.759" y="409.072" width="100%" height="100%"/><use xlink:href="#d" x="276.054" y="422.891" width="100%" height="100%"/><use xlink:href="#e" x="367.348" y="436.711" width="100%" height="100%"/><use xlink:href="#f" x="451.687" y="449.478" width="100%" height="100%"/></g><path style="fill:#000;fill-opacity:1;fill-rule:nonzero;stroke:none" d="M184.762 206.273c1.18-7.785.976-13.777-.598-17.968-1.578-4.196-4.531-6.621-8.855-7.274-4.774-.722-8.82.824-12.145 4.64-3.324 3.817-5.906 9.934-7.738 18.352l29.012 4.391zm0 0" transform="translate(-4.34 -5.215)"/><path style="fill:#000;fill-opacity:1;fill-rule:nonzero;stroke:none" d="m551.754 209.973-11.012-1.668L526 301.703l11.008 1.668-1.844 14.172-40.39-6.113 1.843-14.176 9.223 1.398 11.555-75.347-41.348 71.828-10.914-1.653-17.688-81.605-11.828 76.148 9.598 1.45-1.844 14.175-35.707-5.402 1.844-14.176 11.012 1.664 14.742-93.394-11.012-1.668 1.844-14.176 34.52 5.227 18.741 85.047 43.54-75.622 30.699 4.649zM395.69 293.824c-15.687 1.438-28.418 1.418-38.187-.058-17.36-2.63-30.246-10.47-38.668-23.524-8.426-13.058-11.148-29.426-8.168-49.117 3.062-20.234 10.46-35.16 22.187-44.773 11.727-9.61 26.743-13.036 45.04-10.262 6.496.98 12.78 2.367 18.851 4.156a125.328 125.328 0 0 1 17.633 6.668l-3.91 25.828-13.496-1.89.949-12.313c-3.719-2.86-6.469-5.14-10.238-6.832-3.774-1.691-7.586-2.832-11.45-3.418-10.402-1.574-19.261 1.813-26.578 10.156-7.316 8.348-12.207 20.637-14.664 36.867-2.406 15.907-1.008 28.918 4.195 39.047 5.204 10.13 13.547 16.063 25.036 17.801 3.168.48 6.433.332 9.793-.453l4.793-31.672-11.008-1.664 1.844-14.176 42.25 6.395-1.84 14.176-8.258-1.25zm-96.128-11.941-42.254-6.399 1.843-12.175 9.149 1.386 7.402-48.882c.703-4.653.43-8.266-.82-10.836-1.254-2.57-3.508-4.102-6.766-4.598-3.105-.469-6.457.168-10.05 1.906-3.594 1.746-7.434 4.594-11.516 8.547l-7.485 49.438 9.153 1.386-1.844 12.176-42.254-6.398 1.844-12.172 11.012 1.664 9.984-63.973-11.008-1.668 1.844-14.176 33.101 5.012-2.578 17.027c4.282-5.855 8.989-10.023 14.125-12.503 5.133-2.473 10.7-3.258 16.692-2.352 7.328 1.11 12.68 4.5 16.05 10.172 3.372 5.672 4.387 12.95 3.043 21.832l-7.835 51.742 11.011 1.668zm-101.31-18.953c-8.202 2.57-17.362 3.09-27.48 1.562-14.828-2.246-25.726-8.23-32.703-17.953-6.972-9.723-9.308-22.207-7-37.453 2.075-13.707 7.414-24.274 16.024-31.695 8.605-7.422 18.785-10.243 30.539-8.461 11.351 1.715 19.289 6.86 23.8 15.422 4.512 8.566 5.602 20.554 3.27 35.964l-.535 3.536-50.957-7.711c-.895 9.933.414 17.699 3.93 23.293 3.515 5.597 9.265 8.996 17.25 10.207 8.285 1.254 17.043.363 26.277-2.672zm-77.706-34.653-3.922 25.914-81.305-12.308 1.692-11.188 70.52-89.965-39.196-6.234-1.84 12.172-13.902-1.8 3.683-24.348 78.778 11.921-1.754 11.602-69.426 88.7 40.84 6.484 1.93-12.75m472.753-70.836c-.418-1.735-1.574-3.04-3.218-3.797l-6.028-1.48-15.632-2.372s-14.137-3.68-16.407-4.547c-.648-.25-7.015-2.183-7.015-2.183l-2.004-4.414-4.77-.27s-5.258-.86-6.355-1.074c-1.102-.219-4.871.258-4.871.258l-42.91-6.075-48.743-8.218-.215 3.781s-34.27-4.61-34.933-4.61c-.66 0-9.524-1.023-9.524-1.023l-26.585-1.344-35.668-1.507-16.293-1.508-10.57-4.738-9.47-4.31-26.203-5.597-12.547-1.078-8.726-.035-6.469-1.902-4.844-1.723-1.98-5.602-42.277-6.89-.88 6.246-11.007-2.156-6.606.433-2.644 1.293-9.578-1.402-12.551-1.695-.988 3.742-.969.543c-1.191.664-2.703.312-3.465-.801l-1.293-1.898-7.926-1.075-5.093-1.32a8.293 8.293 0 0 1-2.754-1.988l-2.696-4.23 2.274-1.833c.922-.746.492-2.207-.695-2.355l-3.973-.496-14.578-1.704-2.871 1.004-12.77-.214-10.57-2.235-4.871-1.941-2.395-2.746-5.004-.493-4.574-2.925-4.582 4.933-4.5 1.715-1.484 11.39c-.399 1.458-.403 2.298 1.101 2.63l4.758 1.054a2.364 2.364 0 0 1 .469 3.614l-8.89 9.582-3.68 16.527c-.372 1.48 1.074 2.777 2.55 2.29l3.196-.755h2.586l2.027 1.719c.695.594.754 1.633.129 2.297l-3.746 3.953-5.016 6.676-1.762 6.031s-5.062 27.137-5.285 28.43c-.219 1.293 2.863 9.906 2.863 9.906l-.796 6.273 1.43 7.758-1.016 15.906-3.965 6.22-1.485 6.944-3.14 5.25-1.985 11.973-3.793 5.149-.664 4.363 4.418 1.773a3.032 3.032 0 0 1 .793 3.324L13.31 260.2l-3.082 4.742-1.79 4.98.493 10.095 3.054 1.722-2.398 3.282c-.73 1 .375 2.296 1.512 1.773l7.601-3.492a2.335 2.335 0 0 1 1.547 0l4.402 1.523c1.618.559 1.918 2.668.516 3.637l-3.05 2.11-6.645 1.53c-1.719.536-1.543 2.965.234 3.258l15.516 1.329 2.152-1.731 27.332 4.281 8.27-.996 22.148 2.375 19.371 4.438 7.992 3.234 12.403 1.879 51.52 7.539 3.964 5.383 31.488 4.094 41.172 6.246 4.406-3.45c-.253-.074 5.766-.078 10.458 1.727 1.765.676 11.476 1.938 11.476 1.938s5.067 1.14 8.23.859c4.239-.375 7.047 1.078 7.047 1.078l13.211 1.938 14.778 1.937 9 2.8 8.808 4.31 16.516 3.015 12.656 1.828 14.793 2.477 9.098.863h9.484l10.332 2.371 7.211.477c.813.054 1.086-1.04.344-1.356l-5.434-2.328.13-1.754a2.363 2.363 0 0 1 1.628-2.05l2.29-.743 12.109 2.797 15.796 2.477 10.899 3.152 19.816 2.988 16.27 1.778 11.64 1.777 12.457 3.789 11.325.41 10.129 2.367 5.492-3.23 1.11-7.106.882-8.183.66-11.203s-1.539-11.97-1.68-13.27c-.414-3.875 2.122-10.203 2.34-11.066.149-.574 1.766-4.414 2.824-6.903a8.964 8.964 0 0 0 .676-4.472L556.723 291l1.98-15.723 4.402-21.535 1.762-17.015s1.156-6.864 2.313-11.954c.148-.664 3.218-13.109 3.218-13.972 0-.86 1.157-11.227 1.157-11.227l4.61-2.265.92-15.825-.769-3.148 3.082-17.203zm0 0" transform="translate(-4.34 -5.215)"/></svg>