<svg xmlns="http://www.w3.org/2000/svg" xml:space="preserve" width="2303.681" height="1512.966"><defs><clipPath clipPathUnits="userSpaceOnUse" id="a"><path d="M0 1252.404h1842.936V0H0Z"/></clipPath><clipPath clipPathUnits="userSpaceOnUse" id="b"><path d="M0 1252.404h1842.936V0H0Z"/></clipPath></defs><g clip-path="url(#a)" transform="matrix(1.33333 0 0 -1.33333 -81.63 1625.651)"><path d="m0 0-22.854 3.458-30.604-193.875 22.854-3.46-3.827-29.424-83.847 12.692 3.827 29.424 19.146-2.898 23.988 156.409-85.834-149.102-22.658 3.429-36.707 169.398-24.555-158.069 19.92-3.016-3.827-29.424-74.121 11.219 3.828 29.425 22.854-3.46 30.604 193.876-22.854 3.46 3.825 29.424 71.66-10.846 38.905-176.545L-59.902 39.07l63.727-9.646zm-323.949-174.063c-32.569-2.987-58.994-2.946-79.272.123-36.032 5.455-62.79 21.731-80.273 48.832-17.484 27.101-23.134 61.082-16.947 101.954 6.358 42.007 21.71 72.986 46.056 92.941 24.341 19.953 55.507 27.056 93.494 21.306 13.484-2.041 26.527-4.919 39.131-8.63a260.28 260.28 0 0 0 36.602-13.839l-8.117-53.618-28.016 3.928 1.97 25.552c-7.722 5.943-13.424 10.671-21.253 14.187-7.829 3.512-15.751 5.878-23.769 7.091-21.591 3.268-39.981-3.759-55.169-21.081-15.19-17.324-25.335-42.833-30.436-76.529-4.996-33.015-2.099-60.032 8.703-81.056 10.803-21.023 28.123-33.339 51.968-36.948 6.578-.997 13.355-.685 20.33.94l9.951 65.743-22.852 3.459 3.826 29.424 87.707-13.276-3.825-29.425-17.142 2.595zm-199.549 24.791-87.707 13.277 3.826 25.273 18.992-2.876 15.36 101.47c1.462 9.663.895 17.161-1.704 22.499-2.598 5.335-7.276 8.515-14.036 9.538-6.451.977-13.408-.345-20.869-3.957-7.463-3.617-15.428-9.53-23.901-17.738l-15.535-102.626 18.994-2.874-3.825-25.273-87.709 13.276 3.826 25.273 22.854-3.46 20.729 132.797-22.854 3.46 3.826 29.424 68.715-10.402-5.351-35.346c8.887 12.162 18.659 20.814 29.322 25.955 10.659 5.138 22.211 6.768 34.649 4.885 15.214-2.303 26.319-9.34 33.319-21.112 6.997-11.774 9.103-26.88 6.311-45.323l-16.259-107.407 22.852-3.46zm-210.3 39.344c-17.026-5.34-36.038-6.422-57.037-3.243-30.782 4.659-53.41 17.08-67.887 37.262-14.477 20.182-19.322 46.097-14.531 77.746 4.308 28.458 15.393 50.391 33.256 65.796 17.865 15.401 38.996 21.258 63.395 17.565 23.569-3.567 40.04-14.243 49.406-32.02 9.366-17.78 11.628-42.664 6.786-74.652l-1.111-7.343-105.772 16.011c-1.857-20.622.86-36.74 8.158-48.352 7.299-11.615 19.234-18.676 35.808-21.185 17.192-2.603 35.371-.755 54.543 5.543zm-161.299 71.927-8.142-53.789-168.775 25.548 3.515 23.223 146.379 186.75-81.356 12.944-3.825-25.273-28.858 3.74 7.65 50.545 163.525-24.752-3.644-24.078-144.114-184.123 84.78-13.461 4.007 26.466M57.39 112.783c-.865 3.598-3.265 6.306-6.684 7.879l-12.512 3.074-32.451 4.918s-29.344 7.643-34.051 9.444c-1.346.515-14.569 4.527-14.569 4.527l-4.161 9.164-9.894.56s-10.912 1.788-13.197 2.235c-2.285.447-10.113-.54-10.113-.54l-89.069 12.611-101.181 17.063-.449-7.854s-71.138 9.568-72.509 9.568c-1.371 0-19.768 2.123-19.768 2.123l-55.19 2.794-74.043 3.13-33.823 3.129-21.938 9.836-19.654 8.941-54.39 11.624-26.052 2.236-18.111.074-13.426 3.949-10.056 3.577-4.113 11.624-87.755 14.306-1.829-12.965-22.852 4.47-13.712-.894-5.485-2.682-19.882 2.906-26.052 3.521-2.057-7.769-2.011-1.124c-2.471-1.381-5.613-.655-7.191 1.661l-2.682 3.934-16.454 2.236-10.569 2.738a17.326 17.326 0 0 0-5.722 4.125l-5.59 8.784 4.717 3.805c1.915 1.544 1.018 4.579-1.443 4.887l-8.245 1.032-30.263 3.53-5.959-2.077-26.509.447-21.939 4.638-10.112 4.024-4.971 5.7-10.392 1.021-9.49 6.076-9.511-10.238-9.343-3.565-3.085-23.639c-.823-3.026-.834-4.766 2.288-5.458l9.875-2.188c2.614-1.678 3.077-5.243.976-7.507l-18.452-19.886-7.643-34.305c-.772-3.074 2.233-5.769 5.298-4.751l6.63 1.558h5.37l4.204-3.563a3.272 3.272 0 0 0 .268-4.767l-7.772-8.209-10.411-13.862-3.657-12.518s-10.512-56.33-10.969-59.013c-.457-2.682 5.941-20.565 5.941-20.565l-1.656-13.021 2.967-16.098-2.11-33.024-8.228-12.909-3.085-14.418-6.513-10.897-4.123-24.852-7.875-10.69-1.371-9.053 9.166-3.683c1.922-1.763 2.572-4.484 1.647-6.898l-8.068-21.043-6.401-9.842-3.714-10.339 1.029-20.956 6.341-3.577-4.98-6.809c-1.518-2.076.776-4.769 3.137-3.684l15.78 7.251a4.896 4.896 0 0 0 3.209.005l9.138-3.162c3.358-1.161 3.978-5.543 1.071-7.554l-6.33-4.376-13.799-3.184c-3.565-1.11-3.201-6.155.487-6.764l32.211-2.753 4.468 3.592 56.732-8.886 17.165 2.069 45.984-4.929 40.204-9.211 16.597-6.717 25.738-3.901 106.952-15.647 8.227-11.177 65.359-8.494 85.47-12.965 9.141 7.153c-.524.157 11.975.164 21.71-3.577 3.668-1.409 23.825-4.023 23.825-4.023s10.517-2.372 17.082-1.789c8.799.783 14.626-2.235 14.626-2.235l27.423-4.024 30.681-4.023 18.682-5.812 18.282-8.942 34.28-6.259 26.28-3.8 30.706-5.14 18.885-1.789h19.682l21.454-4.918 14.969-.993c1.684-.111 2.252 2.156.705 2.818l-11.275 4.825.272 3.644c.147 1.956 1.481 3.634 3.382 4.254l4.744 1.547 25.138-5.812 32.794-5.142 22.625-6.538 41.135-6.203 33.765-3.689 24.167-3.688 25.863-7.866 23.5-.852 21.024-4.918 11.405 6.707 2.307 14.753 1.828 16.989 1.371 23.247s-3.197 24.846-3.485 27.551c-.857 8.047 4.4 21.18 4.857 22.968.305 1.194 3.665 9.162 5.866 14.327a18.684 18.684 0 0 1 1.396 9.288l-3.149 30.033 4.114 32.636 9.141 44.708 3.656 35.318s2.4 14.25 4.799 24.812c.314 1.381 6.685 27.216 6.685 29.004 0 1.788 2.399 23.304 2.399 23.304l9.573 4.705 1.911 32.848-1.6 6.539 6.399 35.71z" style="fill:#000;fill-opacity:1;fill-rule:nonzero;stroke:none" transform="translate(1213.875 603.677)"/><path d="M0 0c2.447 16.164 2.031 28.6-1.24 37.305-3.276 8.706-9.402 13.737-18.384 15.097-9.905 1.499-18.31-1.712-25.21-9.633-6.899-7.924-12.255-20.621-16.059-38.094L-.672-4.44Z" style="fill:#000;fill-opacity:1;fill-rule:nonzero;stroke:none" transform="translate(452.072 611.352)"/><path d="m0 0 14.332-2.128C33.67-5 45.942 2.479 47.868 15.446c2.128 14.332-7.813 22.552-25.558 25.187-8.19 1.216-13.035 1.471-16.093 1.227Zm-10.473-70.525c3.572-.996 8.316-1.933 14.686-2.878 17.973-2.669 34.912 1.791 37.716 20.673 2.634 17.745-11.754 27.323-31.092 30.194L-3.04-20.475Zm-8.296 135.162c9.144.503 25.498-.532 41.196-2.863C43.13 58.7 55.499 54.306 64.882 45.472c8.711-7.107 13.595-18.063 11.669-31.03C74.456.336 63.657-11.313 46.138-14.99l-.068-.455c15.544-6.493 28.441-21.429 25.299-42.587-2.028-13.65-9.531-23.464-19.485-29.426C39.546-95.392 20.863-97.5-7.119-93.345c-15.471 2.297-27.131 5.192-34.049 7.149z" style="fill:#000;fill-opacity:1;fill-rule:nonzero;stroke:none" transform="translate(102.39 326.304)"/><path d="m0 0-6.45 39.556C-8.021 49.323-8.97 60.16-9.927 69.37l-.455.067c-3.593-8.534-7.455-18.889-11.537-27.584L-39.357 5.845Zm-47.05-14.637L-66.697-56.13l-28.893 4.29 71.91 146.039 35.718-5.304L39.091-71.84l-30.03 4.46-7.425 45.513Z" style="fill:#000;fill-opacity:1;fill-rule:nonzero;stroke:none" transform="translate(275.73 273.823)"/><path d="M0 0c8.324-6.584 21.298-13.161 35.63-15.289 17.973-2.669 29.234 4.262 31.092 16.774 1.723 11.603-5 19.577-23.517 29.535C19.303 43.87 5.145 59.69 8.421 81.759c3.717 25.025 27.484 41.026 60.7 36.094 16.608-2.466 28.352-7.931 35.706-13.208L94.658 83.136c-5.022 3.769-15.072 9.678-29.405 11.807-17.745 2.635-26.899-5.771-28.216-14.644-1.757-11.83 6.305-18.608 25.597-29.611C87.766 36.726 98.74 21.377 95.462-.69c-3.648-24.57-25.478-43.185-65.064-37.307-16.152 2.399-32.312 9.449-39.986 15.705z" style="fill:#000;fill-opacity:1;fill-rule:nonzero;stroke:none" transform="translate(340.05 229.393)"/><path d="m0 0-57.786 8.582-6.689-45.046 64.61-9.595-3.412-22.977-92.592 13.75L-73.098 98.05l89.18-13.244-3.413-22.977-61.198 9.088-5.878-39.585L3.379 22.75Z" style="fill:#000;fill-opacity:1;fill-rule:nonzero;stroke:none" transform="translate(550.15 236.559)"/><path d="m0 0 14.332-2.128C33.67-5 45.942 2.479 47.868 15.446c2.128 14.332-7.813 22.552-25.557 25.187-8.192 1.216-13.037 1.471-16.095 1.227Zm-10.473-70.525c3.572-.996 8.316-1.933 14.685-2.878 17.973-2.669 34.913 1.791 37.717 20.673 2.634 17.745-11.755 27.323-31.093 30.194l-13.877 2.061zm-8.296 135.162c9.143.503 25.498-.531 41.196-2.863 20.702-3.074 33.071-7.468 42.455-16.302 8.71-7.107 13.595-18.063 11.669-31.03C74.456.336 63.656-11.313 46.138-14.99l-.068-.455c15.544-6.493 28.441-21.429 25.299-42.587-2.028-13.65-9.531-23.464-19.485-29.426C39.545-95.392 20.863-97.5-7.12-93.345c-15.47 2.298-27.13 5.192-34.047 7.149z" style="fill:#000;fill-opacity:1;fill-rule:nonzero;stroke:none" transform="translate(612.68 250.525)"/><path d="m0 0-6.45 39.556C-8.021 49.323-8.97 60.16-9.928 69.37l-.454.068c-3.593-8.535-7.455-18.89-11.538-27.584L-39.357 5.845Zm-47.05-14.637L-66.698-56.13l-28.892 4.29 71.91 146.039 35.718-5.304L39.091-71.84l-30.03 4.46-7.425 45.513Z" style="fill:#000;fill-opacity:1;fill-rule:nonzero;stroke:none" transform="translate(786.02 198.044)"/><path d="m0 0 27.982-4.155L8.691-134.059l63.018-9.358-3.48-23.433-91 13.514z" style="fill:#000;fill-opacity:1;fill-rule:nonzero;stroke:none" transform="translate(869.267 276.364)"/><path d="m0 0 27.982-4.155-19.29-129.904 63.018-9.358-3.481-23.433-90.999 13.514z" style="fill:#000;fill-opacity:1;fill-rule:nonzero;stroke:none" transform="translate(981.425 259.708)"/></g><g clip-path="url(#b)" transform="matrix(1.33333 0 0 -1.33333 -81.63 1625.651)"><path d="M0 0c4.328.469 6.914.469 9.714 2.052 8.706 4.92 16.581 12.083 27.185 12.447 1.808.062 3.031 1.181 3.881 2.79 1.479 2.8 3.87 4.381 6.568 5.603 1.512.684 3.003 1.456 3.616 3.28 1.582 4.706-4.007 15.644-8.705 17.182C28.175 47.964 13.641 51.229.29 58.053c-7.007 3.582-13.697 6.772-21.289 1.888-.949-.611-2.404-.442-3.627-.469-12.719-.287-25.376-.418-37.888 3.054-6.401 1.776-13.174 3.517-19.099-2.429-1.427-1.432-4.723-2.52-6.296-1.765-7.242 3.476-16.024.317-22.667 6.332-2.356 2.134-4.675 2.314-4.982-2.583-.417-6.662-1.413-13.332-2.757-19.862-.758-3.685.362-5.358 3.042-7.414 3.867-2.965 10.813-3.033 10.102-10.879-.035-.394 1.221-1.051 1.959-1.369C-88.936 16.39-75.859 6.366-59.263 7.63c2.583.197 5.332-.559 7.866-1.362C-34.097.786-15.731 5.792 0 0m189.098 134.499c7.909-5.38 15.061-10.99 21.787-17.216 6.129-5.675 11.216-11.889 14.323-19.965 2.08-5.406 5.096-10.301 8.675-14.871 18.166-23.197 31.09-49.753 43.701-76.503C279.957.911 282.571-4 285.205-8.889c4.279-7.943 8.012-16.12 9.691-25.15.474-2.549 1.811-4.144 3.561-5.789 11.006-10.342 20.362-22.234 25.97-36.621 2.736-7.019 5.725-12.631 11.534-17.575 6.551-5.573 10.574-13.264 13.017-22.703 2.336-9.026 11.563-15.504 15.195-24.446 2.928-7.208 2.655-9.802 7.873-15.553 4.933-5.437 5.73-9.233 9.934-15.429 7.02-10.35 9.235-23.382 12.395-35.396 3.158-12.015 6.229-23.104 2.542-44.627-3.688-21.524-5.938-20.947-5.938-20.947s-5.403-11.145-5.31-14.059c.199-6.242-.991-12.529.853-18.729.463-1.558 3.117-35.555 2.998-52.194-.041-5.809 2.895-8.587 1.231-14.57-.491-1.763 2.428-4.588 4.55-5.202 2.589-.748 5.46-1.047 6.547-4.116 2.929-8.268 6.689-15.492 12.261-21.298 20.424-21.278 23.593-46.336 36.741-72.943 10.189-20.617 19.558-41.678 29.567-62.394 3.962-8.2 8.207-14.421 15.309-19.059 4.907-3.205 6.325-8.445 6.116-14.064-.246-6.592 2.267-11.289 6.601-15.975 5.369-5.805 11.248-11.453 13.972-19.517.761-2.251 2.102-4.666 4.363-5.202 12.196-2.888 16.375-13.402 19.807-23.936 1.535-4.713 3.632-7.715 7.42-10.284 10.164-6.894 20.303-13.73 28.197-23.821 6.769-8.652 7.358-18.746 5.196-28.226-1.157-5.075-5.384-11.427-12.184-12.688-5.138-.953-9.591-3.314-14.044-6.197-14.103-9.13-36.418-1.481-43.847 13.867-6.134 12.674-14.059 23.999-28.961 26.178-5.866.857-9.581 4.492-12.275 9.658-.89 1.706-1.611 3.472-3.155 4.713-10.357 8.322-18.024 18.169-17.193 33.045.14 2.5-.176 5.153-3.522 5.913-20.339 4.621-34.676 18.137-47.769 34.41-19.184 23.847-32.656 51.354-47.3 78.147-5.02 9.185-9.12 18.968-14.578 27.835-3.128 5.081-6.125 10.536-10.677 14.618-2.025 1.817-4.336 3.965-4.546 6.773-.782 10.467-9.018 16.124-13.505 24.171-1.434 2.572-4.206 3.313-6.477 4.753-5.61 3.558-9.404 8.294-8.306 15.799 1.739 11.892-2.519 21.854-9.737 30.31-8.723 10.219-14.548 22.398-18.555 34.867-3.956 12.31-11.085 21.977-17.759 32.117-5.28 8.023-8.216 7.766-15.563 1.576-34.966-29.459-69.852-59.025-104.967-88.285-8.682-7.235-18.157-13.422-28.896-16.9-2.623-.849-4.114-2.552-5.347-4.926-2.466-4.746-5.523-9.059-8.534-13.449-6.155-8.972-13.849-15.023-24.086-17.627-5.289-1.346-7.868-4.231-6.296-10.837 1.393-5.85.641-12.037-1.756-17.814-2.585-6.23-2.802-13.046-3.983-19.616-1.609-8.947-3.639-17.651-7.373-26.007-4.343-9.72-6.043-19.42-6.756-30.651-.485-7.633-5.475-28.371-5.475-28.371l-5.016-20.374-5.339-8.882s-.165-17.374-4.27-27.701c-4.421-11.122-11.168-21.869-10.758-35.357.242-7.948-.651-12.33-3.106-20.204-1.702-5.458-6.092-7.275-11.388-6.318-3.231.583-6.437 1.321-9.649 2.017-1.585.343-7.751-2.411-9.154-3.684-5.603-5.083-10.405-3.823-16.958-3.788-18.224.095-36.44-1.614-54.679-.188-5.948.465-11.882.962-17.576 2.863-6.984 2.332-9.242 7.692-5.997 14.574 5.89 12.49 13.356 22.32 27.289 26.889 8.995 2.949 16.534 10.971 23.892 17.909.944.89 1.643 2.062 1.281 3.457-1.853 7.141 2.929 7.894 7.546 8.762 6.03 1.133 7.481 3.688 5.51 9.889-.194.613-.818 1.305-.677 1.773 2.622 8.752-.911 18.006 1.389 26.486 2.518 9.282 4.998 18.674 9.055 27.521 1.887 4.116.809 9.793 2.812 13.794 7.408 14.797 6.758 31.339 10.425 46.791 4.735 19.956 3.331 40.183 6.794 59.974 2.017 11.525 6.23 22.391 10.063 33.333 2.208 6.304 4.554 12.419 4.811 19.326.247 6.617 2.706 12.705 6.477 17.982 5.609 7.848 9.949 16.435 17.596 23.047 5.038 4.357 7.776 12.424 11.761 18.708 9.232 14.561 16.867 30.196 25.715 44.95 7.381 12.309 17.868 22.521 26.765 33.848 8.811 11.216 19.612 20.287 29.192 30.672 3.708 4.019 6.28 9.042 11.829 11.675 2.842 1.349 7.519 5.476 5.16 11.619-.977 2.543.635 4.945 3.343 6.103 1.685.72 4.629 1.754 4.639 2.678.092 7.863 7.27 10.228 10.331 15.666.877 1.558 2.176 1.681 3.542 2.137 4.603 1.534 4.415 4.655 1.766 7.831-6.528 7.829-13.678 14.057-23.788 17.268-5.715 1.816-11.099 8.168-14.566 13.874-12.027 19.794-26.461 38.452-32.556 61.483-2.379 8.99-7.036 15.22-12.434 21.669-2.749 3.284-5.314 3.308-7.503-.05-2.457-3.77-5.382-4.032-9.074-2.75-2.526.877-5.293 1.065-7.73 2.126-12.34 5.376-24.073 2.046-35.662-2.653-4.214-1.709-8.578-2.162-12.708-1.193-31.14 7.304-60.99 17.662-88.033 36.566-16.351 11.43-33.503 21.802-51.096 31.201-5.274 2.817-10.076 6.622-15.078 10.001-2.4 1.621-4.382 2.694-6.746-.586-1.477-2.05-4.406-2.671-6.722-.845-6.092 4.804-11.955 9.879-15.639 17.162-2.348 4.644-.897 6.69 3.876 7.315 6.868.901 7.381 1.943 5.543 9.239-1.705 6.77-.554 12.157 4.503 17.521 5.211 5.526 11.03 10.23 16.332 15.58 1.028 1.038 2.499 1.743 2.696 3.39.896 7.485 5.99 8.763 11.69 8.402 4.762-.301 5.876 1.853 7.768 6.396 6.489 15.586 13.352 31.403 30.372 37.781 5.244 1.965 10.347 1.911 13.724-3.339 3.22-5.008 5.142-3.811 8.557-.008 28.653 31.917 57.598 63.542 86.296 95.414 19.371 21.514 37.711 44.013 56.222 66.345 2.296 2.77 4.562 5.581 7.014 8.194a141671.89 141671.89 0 0 0 102.753 109.368c8.062 8.572 18.312 7.677 25.139-2.107 11.29-16.18 11.164-18.662-2.388-32.636-33.325-34.361-65.742-69.79-100.324-102.683-35.659-33.915-72.358-66.645-107.807-100.839-17.571-16.949-34.744-34.359-52.102-51.555-2.316-2.293-4.697-4.374-1.67-8.081 3.152-3.86 4.986-.467 7.103 1.147 3.326 2.537 6.765 4.979 9.766 7.906 7.785 7.592 16.921 11.986 27.276 13.898 1.972.365 4.753.275 5.535 2.333 3.285 8.647 10.62 7.882 17.088 8.119 10.833.397 20.874 3.461 30.73 7.858 7.727 3.447 15.319 7.4 23.763 8.678 3.62.548 3.804 2.729 3.306 6.053-2.145 14.319-3.842 28.511-.826 43.154 2.947 14.307 9.638 25.632 20.164 34.583 25.327 21.537 53.627 24.152 83.373 12.944 12.099-4.559 18.137-16.454 24.159-27.567 2.528-4.664 4.798-9.749 5.909-14.946 2.099-9.812 8.544-13.586 16.795-15.66 2.984-.749 5.951-1.623 8.852-2.669 1.352-.487 2.594-1.554 2.468-3.349-.136-1.92-1.631-2.21-3.077-2.551-3.201-.755-6.352-1.846-9.586-2.318-5.865-.857-7.49-3.362-5.134-9.553 3.052-8.019 5.217-16.411 5.244-25.234.032-10.297-1.908-13.697-11.061-17.743" style="fill:#000;fill-opacity:1;fill-rule:nonzero;stroke:none" transform="translate(1200.467 806.045)"/></g></svg>