<svg xmlns="http://www.w3.org/2000/svg" xml:space="preserve" width="761.949" height="442.681"><path d="M21.419 434.93c2.35-5.04.28-6.73-3.92-6.68-2.24.03-2.51-1.46-2.83-3.05-.71-3.55-.11-6.99 1.24-10.22 2.48-5.94 2.95-12.26 3.95-18.49.39-2.42-.61-4.11-2.75-4.92-2.37-.9-3.5-2.77-2.8-4.81 3.04-8.85 1.46-18.15 2.88-27.19 1.2-7.66 3.47-15.28 2.2-23.4-1.43-9.11-4.79-17.61-7.72-26.15-1.97-5.77-3.43-11.39-3.88-17.37-.41-5.36-.42-10.76-1.08-16.09-.91-7.3 1.38-13.65 4.63-19.96 3.04-5.92 1.75-7.8-4.75-7.32-2.59.19-3.55-.95-3.65-3.15-.37-8.57-2.42-17.24 3.92-24.98 3.03-3.7 1.97-5.86-2.82-7-2.59-.61-3.15-1.83-3.46-4.13-.72-5.35-1.66-10.32 3.33-14.7 3.71-3.25 11.15-5.43 15.51-2.6 2.86 1.86 5.77 2.13 8.98 2.23 10.13.32 19.58-3.02 29.3-5.01 4.45-.91 9.12-.71 13.7-1 1.31-.08 2.71-.12 2.82 1.67.36 6.02 5 6.56 9.34 7.09 4 .48 8.18-.8 12.01 1.55 1.04.64 2.6.5 3.35-.85 2.19-3.99 6.1-4.26 9.87-4.36 6.51-.16 12.87-.6 18.93-3.39 4.4-2.03 9.36-1.24 14.01-2.09 1.61-.29 3.97-.63 3.45-2.35-1.42-4.71 1.91-3.48 4.03-3.63 11.5-.87 23.02-1.63 34.52-2.47 3.11-.23 5.55.86 8.33 2.36 4.58 2.46 9.96 4.69 15.2 3.09 18.96-5.81 38.23-3.78 57.47-2.92 1.24.06 2.65.21 3.68.83 7.69 4.61 15.66 2.38 23.52.96 20.23-3.66 40.69-5.88 60.88-9.59 17.18-3.16 34.65-2.68 51.79-5.66.93-.16 2.24.07 2.73-.47 4.75-5.13 11.17-3.67 16.91-4.13 22.2-1.76 44.44-3.16 66.67-4.61 10.39-.68 20.9.04 31.13-2.63.84-.22 1.95-.03 2.76.36 10.04 4.74 20.6 4.28 31.1 2.75 6.56-.96 12.93-.48 19.34.48 2.03.3 4.7.43 4.28 3.79-.03.26.19.65.41.82 6.82 4.99 4.03 11.98 3.66 18.33-.34 5.87-.66 11.66.62 17.47 1.57 7.13 1.66 14.24 1.07 21.62-1.07 13.37-.8 26.85-1.14 40.29-.21 8.46 2.22 16.6 2.84 24.95.73 9.93 1.36 19.87 1.68 29.82.16 5.03 1.59 9.68 3.16 14.3 2.57 7.6 2.93 15.46 3.75 23.33.72 6.87 2.48 13.62 3.67 20.44.81 4.66 1.69 9.34 2.05 14.05.41 5.39-2.19 8.91-7.48 8.9-9.22-.02-18.14 2.7-27.38 2.25-17.4-.84-34.64 1.7-51.96 2.71-11.67.68-23.4-.14-35.06 1.23-3.92.46-7.88.62-11.81.92-2.14.16-4.16.82-2.9 3.43 1.97 4.1-1.21 4.03-3.32 4.1-11.7.39-23.33 1.94-35.06 1.74-5.18-.09-10.04.79-15.17 2.42-8.18 2.6-17.32 3.93-25.76 1.85-14.87-3.65-29.58-1.56-44.37-.81-12.45.64-24.69 3.58-37.21 3.53-3.16-.01-6.12.72-8.9 2.67-4.25 2.99-9.48 2.2-14.29 2.55-20.82 1.51-41.66 2.71-62.49 4.01-.94.06-2.05.29-2.81-.1-9.93-5.03-20.32-1.86-30.38-1.28-21.46 1.24-42.86 3.28-64.38 1.48-11.3-.95-22.65.5-33.46 2.7-11.23 2.28-22.44 3.08-33.67 4.5-7.29.92-14.34 3.78-21.88 3.5-1.16-.04-2.81.96-3.21-.84-.33-1.49 1.34-1.95 2.38-2.58 1.22-.74 2.49-1.38 3.77-2 2.29-1.12 4.69-3.14 3.5-5.35-1.34-2.48-4.55-3.27-7.53-1.71-2.77 1.44-4.79 4.16-9.04 4.97zm338.63-46.5c-.29-3.63-.85-7.26-.79-10.88.04-3.09-1.27-3.78-3.99-3.61-5.68.37-11.37.52-17.04.86-3.31.2-4.9-.94-5.05-4.51-.41-9.79-1.17-19.57-1.66-29.36-1.2-24-2.34-48.01-3.47-72.02-.08-1.8-.73-4.06 1.95-4.63 2.41-.51 3.29 1.39 4.15 3.12 2.32 4.68 4.68 9.33 6.9 14.06 15.67 33.4 33.33 65.74 51.39 97.89 2.61 4.65 5.7 5.98 10.67 5.31 6.41-.87 12.88-1.45 19.35-1.7 3.43-.13 5.07-1.6 6.28-4.58 5.49-13.65 11.2-27.21 16.68-40.85 10.04-24.96 18.69-50.42 27.37-75.87.64-1.86.98-4.39 3.85-3.91 2.3.38 2.03 2.53 2.17 4.2 2.66 32.45 5.23 64.91 8.04 97.35.32 3.73-1 4.83-4.24 5.1-4.25.35-8.5.76-12.74 1.28-2.3.28-4.34.93-4.12 4.04.43 6.31.69 12.63 1.04 18.94.09 1.56.43 2.66 2.54 2.48 8.34-.71 16.7-1.22 25.05-1.85 19.07-1.44 38.11-3.14 57.2-4.27 12.06-.72 11.25.45 10.43-10.93-1.27-17.65 1.78-14.68-15.44-13.89-3.74.17-5.52-.99-5.8-4.89-1.03-14.18-2.29-28.35-3.39-42.53-1.11-14.34-2.06-28.69-3.2-43.03-1.36-17.17-2.81-34.33-4.27-51.49-.3-3.56 1.32-5.33 4.72-5.76 3.29-.41 6.57-1.09 9.88-1.23 3.26-.14 4.5-1.47 4.26-4.7-.44-5.83-.89-11.67-.91-17.5-.01-3.44-.77-4.68-4.55-4.38-15.6 1.26-31.22 2.14-46.83 3.22-8.99.62-17.96 1.44-26.95 1.98-4.15.25-6.52 1.88-7.66 6.13-1.55 5.79-3.85 11.37-5.75 17.07-11.46 34.35-22.89 68.72-34.38 103.06-.61 1.81-.71 4.41-3.53 4.39-2.4-.02-2.81-2.25-3.63-3.89-2.91-5.8-5.84-11.58-8.63-17.43-15.55-32.72-31.97-65.02-48.08-97.46-1.31-2.65-2.98-3.64-5.95-3.42-27.11 1.96-54.22 3.84-81.34 5.63-4.05.27-5.8 1.96-5.12 5.97.91 5.33.88 10.71.92 16.09.02 3.46 1.42 5.33 5.17 5.09 3-.19 6.01-.15 9.02-.16 6.49-.02 6.78.11 7.14 6.43 1.47 26.05 2.78 52.1 4.27 78.15 1.07 18.76 2.25 37.51 3.61 56.25.31 4.23-1.15 6.28-5.24 6.7-3.46.36-6.9.88-10.36 1.11-2.69.18-4.04 1.01-3.7 4.07.61 5.49 1.06 11.02 1.23 16.54.1 3.51 1.18 4.46 4.85 4.18 22.23-1.68 44.48-3.22 66.74-4.44 11.13-.6 11.31-.44 10.94-11.52zm-205.17 27.07c16.11.08 30.76-.93 45.32-3.23 13.95-2.2 27.64-5.39 40.75-10.74 2.43-.99 4.73-1.75 4.47-5.59-1.23-17.98-2.03-35.99-3.08-53.98-.17-2.92.88-4.55 3.78-4.91 2.98-.37 5.96-.77 8.96-1.03 2.93-.25 4.18-1.64 3.97-4.63-.42-6.14-.71-12.3-1.01-18.45-.16-3.18-2.05-3.2-4.6-2.99-14.18 1.14-28.36 2.13-42.55 3.15-18.29 1.31-36.57 2.62-54.87 3.84-2.59.17-3.93 1.2-3.55 3.79.88 5.98.6 12 .76 18.01.09 3.28 1.44 4.51 4.68 4.29 6.47-.44 12.97-.46 19.41-1.09 4.13-.41 5.15 1.25 5.33 5 .54 10.89 1.26 21.78 2.18 32.65.62 7.34-.86 9.7-8.04 10.18-26.82 1.78-47.81-8.58-61.14-31.91-11.24-19.67-13.2-41.37-9.4-63.52 3.5-20.35 12.45-37.62 30.65-48.57 13.33-8.02 27.86-11.01 43.33-7.1 5.89 1.49 10.04 4.35 11.48 11.02 1.62 7.54 4.6 14.79 6.61 22.26 1.11 4.13 3.28 5.18 7.25 4.46 9.03-1.63 18.08-3.16 27.17-4.4 4.03-.55 4.88-2.45 4.35-6.12-2.44-16.74-4.87-33.5-6.99-50.28-.47-3.74-2.21-5.13-5.53-5.76-11.54-2.2-23.25-3.01-34.9-2.79-14.35.28-28.69 1.54-42.82 4.53-22.79 4.83-44.73 11.89-63.55 26.13-29.63 22.42-47.16 51.19-44.98 89.65 2.08 36.55 20.53 62.06 53.46 77.04 20.4 9.26 42.28 11.46 63.1 11.09z" style="clip-rule:evenodd;fill-rule:evenodd"/><path d="M546.569 173s.43-8.11 1.72-12.32c1.29-4.21 7.5-10.97 7.5-10.97s3.38-5.45 4.14-5.64c.76-.19 5.08-5.45 5.08-5.45l5.45-5.82 4.14-5.82 1.5-3.01 1.32-3.38-2.07-2.07s-2.65-1.04-3.95 1c-.64 1.01-1.41 1.39-2.09 1.97-.61.51-2.82 1.16-3.92 1.1-1.09-.06-2.44-.21-3.18-.62-.74-.41-1.81-1.54-2.09-2.33-.29-.79 0-3.95 0-3.95s.26-2.77 0-3.3c-.26-.54-1.79-1.28-2.12-1.7-.33-.42-.31-1.47.18-2.12.48-.65 1.94-1.06 1.94-1.06s2.47-.04 2.96-.29c.49-.25 1.16-3.55-.33-3.01-.72.26-.93.25-1.63.3-.99.08-2.71.26-3.22 0-.51-.26 2.02-3.97 2.26-4.96.24-.99-3.17.06-4.33-1.83.11-2.3 5.38-7.44 6.03-8.1.65-.66-.02-4.39.38-6.4.4-2.02 2.45-5.46 2.45-5.46s2.35-2.9 2.58-3.71c.23-.8-.51-4.86-.51-5.52.01-.66 1.41 1.26 1.88.75.26-.27-.54-1.62-.2-2.55.83.01 1.92-.33 1.92-.33l1.49-1.08 2.83-1.13 7.72-1.7h9.53l5.07.78 4.51 1.31 3.33 2.28 2.64 3.47s1.82 4.79 2.06 6.77c.25 1.98-.4 5.88-.4 5.88l-1.25 5.26-1.69 5.26-.19 6.38 3.19-4.69 3.19-4.51 5.07-5.44 3.38-3.19 7.32-3.57 7.88-5.26 6.19-4.69 6.19-4.32 5.07-4.13 1.5-2.59s-3.1-.38-4.51 0c-1.4.38-4.54.56-6.01.53-1.47-.03-6.57-1.13-6.57-1.13s-4.62-1.52-6.57-2.44c-1.95-.92-3.95-2.76-6.26-4.94-2.31-2.18-3.75-4.56-4.26-5.76-.51-1.2-2.18-4.47-2.58-5.87-.4-1.4-1.78-5.07-2.06-7.89-.28-2.82.17-6.94.17-6.94s.87-6.28 3.14-10.16 6.25-6.95 7.92-8.01c1.66-1.07 5.13-2.65 7.36-3.38 2.23-.73 7.04-1.5 8.88-1.5 1.83 0 7.14.76 8.67 1.17 1.53.41 7.58 3.35 9.26 4.65 1.68 1.3 5.89 6.1 5.89 6.1s2.48.81 2.79 1.44c.61.94 5.6 8.61 5.6 8.61s1.91 2.4 2.3 4.32c.39 1.92 0 7.32 0 7.32l-2 6.95s.17 6.09 0 7.22-4.3 9.57-4.3 9.57l-2.05 5.63-3.18 5.07-7.66 7.7-7.1 6.95-5.6 6.76s-4.06 4.59-4.48 5.63l-2.43 6.01-5.04 9.76-4.11 9.01-2.43 6.76s-2.27 3.68-2.24 5.26c.03 1.58.19 9.2.19 9.2l-.93 9.95-1.49 10.7-3.74 12.58-2.8 7.88-3.92 7.88-2.05 6.19-1.87 9.57-3.18 10.14-.93 5.99-1.03 2.2 2.45 2.68.83 3.72-.19 2.87 5.23 4.51s2.63 3.12 3.74 4.69c1.11 1.57 4.11 7.51 4.11 7.51l2.8 6.19 1.31 5.44 1.87 12.58.19 9.76-1.68 10.51-3.18 12.58 1.68 5.26 1.31 5.82s.67 4.83.82 6.74c.15 1.91-.45 6.22-.45 6.22l.56 3.57v1.69h2v2.63l3.55-3.19 4.11-1.69 6.54-1.69 6.35.94 11.21-1.13 16.06-3.75 15.13-3.94 2.05-5.44v-9.12l1.13-5.45 4.51-4.7 5.08-1.69 6.21.19 5.26 2.63 4.7 4.32 5.64 6.01 3.01 2.63 6.77 3.01 7.71 2.25 6.77 5.07 6.02 6.95 4.14 5.82 2.07 5.64.75 6.76-1.5 6.39-3.38 3.19-3.57 1.69-4.32-.75-7.33-3.76-8.27-4.13-6.77-2.44-5.83-2.44-6.96-.38-3.01.38.38 1.69-.19 1.69-2.82-.19-2.82-.94-3.38 2.25 2.44 2.63 1.69 4.32 1.88 4.88s3.38 4.88 3.95 4.51c.57-.37 6.77 6.39 6.77 6.39l6.96 8.08 4.32 6.95 3.38 8.08 1.13 4.7-.19 6.01-3.2 4.13h-3.38l-3.38-2.63-5.26-6.58-8.09-6.2-8.84-5.26-14.1-3.76-19.18-.56-15.23-.56-10.91 2.25-13.08 3.97-17.3 3.19-16.55 1.69-14.29 1.69-15.61.94-3.03-44.51zM9.979 183.54l-3.22-47.57 22.6-1.53c4.6-.31 8.32-.08 11.17.69 2.85.77 5.12 2.11 6.83 4 1.71 1.89 2.64 3.93 2.79 6.12.14 2.03-.43 4-1.71 5.88-1.28 1.89-3.29 3.48-6.03 4.78 3.7.6 6.6 1.85 8.69 3.75 2.1 1.9 3.24 4.24 3.43 7 .15 2.23-.3 4.34-1.37 6.34-1.06 1.99-2.43 3.57-4.12 4.73-1.69 1.16-3.83 2.09-6.43 2.8-2.61.71-5.83 1.19-9.66 1.45zm6.1-28.12 13.02-.88c3.53-.24 6.05-.59 7.56-1.07 1.99-.61 3.47-1.51 4.42-2.68.95-1.17 1.37-2.59 1.26-4.26-.11-1.58-.68-2.94-1.72-4.07-1.04-1.13-2.47-1.86-4.28-2.19-1.81-.32-4.88-.34-9.21-.05l-12.04.82Zm1.49 21.97 15-1.02c2.57-.17 4.38-.37 5.41-.59 1.82-.38 3.32-.92 4.51-1.61a7.893 7.893 0 0 0 2.86-2.85c.72-1.21 1.02-2.57.92-4.09-.12-1.77-.8-3.28-2.04-4.51s-2.9-2.04-4.97-2.43c-2.08-.39-5.03-.46-8.87-.2l-13.93.94zM59.809 180.17l19.91-49.14 8.59-.58 27.87 45.9-9.08.62-8-13.93-25.19 1.71-5.64 14.85zm16.06-20.72 20.42-1.38-7.18-12.75c-2.19-3.87-3.84-7.06-4.94-9.57-.56 3.1-1.44 6.2-2.63 9.31zM118.809 160.82l7.48-1.03c.52 2.36 1.48 4.25 2.88 5.69 1.4 1.44 3.51 2.53 6.31 3.29 2.8.75 5.92 1.02 9.34.78 3.04-.21 5.7-.75 7.98-1.62 2.28-.87 3.95-1.97 5-3.29 1.05-1.32 1.53-2.72 1.43-4.19-.1-1.49-.74-2.76-1.91-3.8s-3.04-1.85-5.61-2.44c-1.65-.39-5.28-.92-10.88-1.59-5.6-.67-9.55-1.4-11.83-2.18-2.96-.99-5.2-2.33-6.73-3.99-1.53-1.67-2.37-3.59-2.52-5.78-.16-2.4.55-4.7 2.13-6.91 1.58-2.21 4-3.96 7.24-5.27 3.24-1.31 6.89-2.1 10.94-2.37 4.46-.3 8.44 0 11.93.9s6.22 2.4 8.21 4.48c1.98 2.08 3.14 4.51 3.47 7.29l-7.61.97c-.61-2.98-2.16-5.16-4.63-6.53-2.47-1.37-6.02-1.91-10.65-1.59-4.82.33-8.29 1.26-10.4 2.81-2.11 1.54-3.1 3.3-2.97 5.27.12 1.71.99 3.06 2.63 4.06 1.61 1 5.69 1.86 12.25 2.58s11.07 1.43 13.54 2.13c3.59 1.04 6.29 2.48 8.09 4.32 1.8 1.85 2.79 4.04 2.96 6.6.17 2.53-.58 4.98-2.27 7.34-1.68 2.36-4.2 4.28-7.56 5.76-3.35 1.48-7.18 2.36-11.48 2.65-5.45.37-10.06.05-13.83-.95-3.77-1-6.79-2.7-9.05-5.07-2.26-2.37-3.56-5.15-3.88-8.32zM178.349 172.14l-3.22-47.57 7.97-.54 1.6 23.59 28.31-25.62 10.81-.73-23.96 20.99 28.29 26.51-10.52.71-23.08-22.62-9.35 8.26 1.12 16.48zM234.959 168.3l-3.22-47.57 43.55-2.95.38 5.61-35.58 2.41.99 14.57 33.32-2.26.38 5.58-33.32 2.26 1.1 16.19 36.98-2.51.38 5.61zM306.239 163.47l-2.84-41.96-19.84 1.34-.38-5.61 47.74-3.23.38 5.61-19.93 1.35 2.84 41.96zM341.989 161.05l-3.22-47.57 22.6-1.53c4.6-.31 8.32-.08 11.17.69 2.84.77 5.12 2.11 6.83 4 1.71 1.89 2.64 3.93 2.79 6.12.14 2.03-.43 4-1.71 5.89-1.28 1.89-3.29 3.48-6.03 4.78 3.7.6 6.6 1.85 8.69 3.75 2.1 1.9 3.24 4.24 3.43 7 .15 2.23-.3 4.34-1.37 6.34-1.06 2-2.43 3.57-4.12 4.73-1.68 1.16-3.83 2.09-6.44 2.8-2.61.71-5.83 1.19-9.66 1.45zm6.1-28.12 13.02-.88c3.53-.24 6.05-.59 7.56-1.07 1.99-.61 3.47-1.51 4.42-2.68.95-1.17 1.37-2.59 1.26-4.26-.11-1.58-.68-2.94-1.72-4.07-1.04-1.14-2.47-1.86-4.28-2.19-1.81-.32-4.88-.34-9.21-.05l-12.04.82zm1.49 21.96 15-1.02c2.57-.17 4.38-.37 5.41-.59 1.82-.38 3.32-.92 4.51-1.61a7.817 7.817 0 0 0 2.86-2.85c.72-1.21 1.02-2.57.92-4.09-.12-1.77-.8-3.28-2.04-4.51s-2.9-2.04-4.97-2.43c-2.08-.39-5.03-.46-8.87-.2l-13.93.94zM391.829 157.67l19.91-49.14 8.59-.58 27.87 45.9-9.08.62-8-13.93-25.18 1.71-5.64 14.86zm16.05-20.71 20.42-1.38-7.18-12.75c-2.19-3.87-3.84-7.06-4.94-9.57-.56 3.1-1.44 6.2-2.63 9.31zM454.229 153.44l-3.22-47.57 7.97-.54 2.84 41.96 29.66-2.01.38 5.61zM501.029 150.27l-3.22-47.57 7.97-.54 2.84 41.96 29.66-2.01.38 5.61z"/></svg>